<svg fill="none" height="48" viewBox="0 0 32 32" width="48" xmlns="http://www.w3.org/2000/svg">
<g fill="currentColor"><path d="m24 19.0001c1.6569 0 3-1.3432 3-3 0-1.6569-1.3431-3-3-3s-3 1.3431-3 3c0 1.6568 1.3431 3 3 3zm0-1c-1.1046 0-2-.8955-2-2 0-1.1046.8954-2 2-2s2 .8954 2 2c0 1.1045-.8954 2-2 2z"/><path d="m16.5 8.75006c0 1.24264-1.0074 2.25004-2.25 2.25004s-2.25-1.0074-2.25-2.25004 1.0074-2.25 2.25-2.25 2.25 1.00736 2.25 2.25z"/><path d="m10.5 12.7501c0 1.2426-1.00736 2.25-2.25 2.25s-2.25-1.0074-2.25-2.25c0-1.2427 1.00736-2.25 2.25-2.25s2.25 1.0073 2.25 2.25z"/><path d="m8.25 22.0001c1.24264 0 2.25-1.0074 2.25-2.25 0-1.2427-1.00736-2.25-2.25-2.25s-2.25 1.0073-2.25 2.25c0 1.2426 1.00736 2.25 2.25 2.25z"/><path d="m16 24.2501c0 1.2426-1.0074 2.25-2.25 2.25s-2.25-1.0074-2.25-2.25c0-1.2427 1.0074-2.25 2.25-2.25s2.25 1.0073 2.25 2.25z"/><path d="m16.2 31.0001c-2.7916-.2039-5.4874-1.1054-7.84001-2.622-3.43836-2.0143-5.93715-5.3104-6.948-9.165-.435817-1.6783-.53232-3.4268-.28385-5.1429s.83691-3.3653 1.73085-4.85112c3.757-6.2 12.17901-8.033 19.58801-4.256 4.419 2.255 7.724 6.19102 8.418 10.02902.2306 1.0593.2047 2.1583-.0758 3.2055-.2804 1.0472-.8071 2.0122-1.5362 2.8145-2.1584 2.3571-4.9432 2.3241-6.9666 2.3001l-.0074-.0001c-1.345-.023-2.185 0-2.386.4.0707.3093.1924.6046.36.874.505.7102.7587 1.5687.7208 2.4394-.0378.8707-.365 1.7038-.9298 2.3676-.4741.5453-1.0675.974-1.7342 1.2527s-1.3887.3999-2.1098.3543zm-1.671-26.00002c-1.9736-.06695-3.9305.38212-5.67736 1.30283-1.74691.92072-3.22341 2.28124-4.28365 3.94719-.75645 1.2603-1.25381 2.6588-1.46296 4.1137-.20914 1.4549-.12586 2.937.24496 4.3593.87933 3.3392 3.04813 6.1928 6.03 7.934 3.35101 1.988 7.63401 3.3 9.11101 1.473.787-.968.537-1.565-.012-2.622-.2832-.3829-.4656-.8308-.5306-1.3025-.065-.4718-.0105-.9523.1586-1.3975.781-1.541 2.518-1.523 4.2-1.5 1.835.025 3.917.05 5.472-1.649.5138-.5797.8832-1.2728 1.0778-2.0226.1947-.7498.2091-1.535.0422-2.2914-.578-3.2-3.536-6.65302-7.358-8.60002-2.1668-1.12456-4.5688-1.72079-7.01-1.74z"/></g></svg>