<?xml version="1.0" encoding="utf-8"?>
<!-- Generator: Adobe Illustrator 23.0.3, SVG Export Plug-In . SVG Version: 6.00 Build 0)  -->
<svg version="1.1" id="Icons" xmlns="http://www.w3.org/2000/svg" xmlns:xlink="http://www.w3.org/1999/xlink" x="0px" y="0px"
	 viewBox="0 0 32 32" style="enable-background:new 0 0 32 32;" xml:space="preserve">
<style type="text/css">
	.st0{fill:none;stroke:#000000;stroke-width:2;stroke-linecap:round;stroke-linejoin:round;stroke-miterlimit:10;}
	.st1{fill:none;stroke:#000000;stroke-width:2;stroke-linejoin:round;stroke-miterlimit:10;}
</style>
<path class="st0" d="M23.4,23.7c1.3-3.5,1.3-7.4,0.2-11l3.3,0.1L28,8.3c-2.8-1.1-3.8-2.9-6.7-3.3c-0.5,2.5-2.7,4.5-5.3,4.5
	S11.2,7.5,10.7,5C7.8,5.4,6.8,7.2,4,8.3l1.2,4.5l3.3-0.1c-1.2,3.6-1.1,7.4,0.2,11c2.4,0.3,4.4,2,5,4.3H16h2.4
	C19,25.7,21,24,23.4,23.7z"/>
<path class="st0" d="M18,17c-1.1,0-2-0.9-2-2c0-0.8,0.5-1.5,1.1-1.8C16.8,13.1,16.4,13,16,13c-1.7,0-3,1.3-3,3s1.3,3,3,3
	c1.4,0,2.5-0.9,2.9-2.2C18.6,16.9,18.3,17,18,17z"/>
</svg>
