<svg viewBox="0 0 72 72" xmlns="http://www.w3.org/2000/svg" width='48px' height='48px' stroke='currentColor'>
<circle cx="28.6339" cy="36.999" r="2"/>
<path d="m26.0089 19.8949s-7.6875-11.625-14.9375-6.8125c-6.6011 4.3818-3.9113 13.9584.603 16.915" style="fill:none;stroke:currentColor;stroke-linecap:round;stroke-linejoin:round;stroke-miterlimit:10;stroke-width:2"/><path d="m21.0714 58.5824c-15.9375-6.3125-7.8506-24.0133-7.8506-24.0133s3.645-9.3586 9.3416-11.6086" style="fill:none;stroke:currentColor;stroke-linecap:round;stroke-linejoin:round;stroke-miterlimit:10;stroke-width:2"/><path d="m51.0978 58.5824c15.9375-6.3125 7.8506-24.0133 7.8506-24.0133s-3.645-9.3586-9.3416-11.6086" style="fill:none;stroke:currentColor;stroke-linecap:round;stroke-linejoin:round;stroke-miterlimit:10;stroke-width:2"/><circle cx="43.3661" cy="36.999" r="2"/><g style="fill:none;stroke:currentColor;stroke-linecap:round;stroke-linejoin:round;stroke-miterlimit:10;stroke-width:2"><path d="m43.495 43.3313 1.5607 4.8039c.2196.8168.0853 1.6816-.3675 2.3961-1.2194 1.924-4.0542 5.1185-8.2597 2.2386h-.8572c-4.2055 2.8798-7.0402-.3147-8.2597-2.2386-.4528-.7144-.5871-1.5793-.3675-2.3961l1.5607-4.8039"/><path d="m40.172 47.9243c-.1014 3.008-2.8052 1.6561-2.8052 1.6561l-1.3668-.6766-1.3667.6766s-2.7039 1.3519-2.8052-1.6561"/><path d="m45.9911 19.8949s7.6875-11.625 14.9375-6.8125c6.6011 4.3818 3.9113 13.9584-.603 16.915"/><path d="m29.9464 57.1478s5.1875 6.6013 12.1072.5625"/><path d="m24.6652 17.9512s8.7098-4.9304 22.3259 0"/><path d="m36 52.7699v-3.1895"/></g></svg>