<svg enable-background="new 0 0 128 128" viewBox="0 0 128 128" width='48px' height='48px' xmlns="http://www.w3.org/2000/svg">
<path d="m121.4 46.3c0-12.6-10.4-22.9-23.2-22.9-.1 0-.2 0-.2 0-4.7-13-18.1-22.5-33.8-22.5s-29.2 9.4-33.9 22.5c-.2 0-.3 0-.5 0-12.8-.1-23.2 10.2-23.2 22.9 0 11.7 9.1 21.5 20.7 22.7v58.1h73.4v-58.1c11.6-1.2 20.7-10.9 20.7-22.7zm-25.3 76.2h-64.2v-8.3h64.1v8.3zm2.1-57.9h-2.5l.4 4v41h-11.9v-33.2c0-1.3-1-2.3-2.3-2.3s-2.3 1-2.3 2.3v33.3h-13.3v-19.6c0-1.3-1-2.3-2.3-2.3s-2.3 1-2.3 2.3v19.5h-13.3v-33.2c0-1.3-1-2.3-2.3-2.3s-2.3 1-2.3 2.3v33.3h-11.9v-40.8l.4-4.3h-2.5c-10.3 0-18.6-8.3-18.6-18.4 0-9.9 7.9-18 17.9-18.3-.3 1.8-.5 3.7-.5 5.5 0 1.3 1 2.3 2.3 2.3s2.3-1 2.3-2.3c0-15.4 13.9-28 30.9-28s30.9 12.6 30.9 28c0 1.3 1 2.3 2.3 2.3s2.3-1 2.3-2.3c0-1.9-.2-3.7-.5-5.5 9.8.5 17.6 8.5 17.6 18.3.1 10.2-8.2 18.4-18.5 18.4zm-59.4-29.6c-.6 0-1.2-.5-1.2-1.1 0-12.9 11-23.4 24.5-23.4.6 0 1.2.5 1.2 1.1s-.5 1.1-1.2 1.1c-12.2 0-22.1 9.5-22.1 21.2 0 .6-.5 1.1-1.2 1.1z" fill="currentColor"/></svg>