<svg height="24" viewBox="0 0 24 24" width="48px" xmlns="http://www.w3.org/2000/svg">
<path d="m8.5 3c-.82842712 0-1.5.67157288-1.5 1.5v15c0 .8284271.67157288 1.5 1.5 1.5h7.0113578c.8284271 0 1.5-.6715729 1.5-1.5v-15c0-.82842712-.6715729-1.5-1.5-1.5h-.0113581c-.2761421 0-.4999997.22385763-.4999997.5 0 .82842712-.6715729 1.5-1.5 1.5h-3c-.82842712 0-1.5-.67157288-1.5-1.5 0-.27614237-.22385763-.5-.5-.5zm1.41464715 0c.05527574.15638946.08535285.32468229.08535285.5 0 .27614237.2238576.5.5.5h3c.2761424 0 .5-.22385763.5-.5 0-.17531771.0300771-.34361054.0853529-.5zm-3.91464715 1.5c0-1.38071187 1.11928813-2.5 2.5-2.5h7.0113578c1.3807118 0 2.5 1.11928813 2.5 2.5v15c0 1.3807119-1.1192882 2.5-2.5 2.5h-7.0113578c-1.38071187 0-2.5-1.1192881-2.5-2.5z"/></svg>