<svg fill="none" height="120" viewBox="0 0 64 120" width="48px" xmlns="http://www.w3.org/2000/svg">
<g fill="#0b1c3f"><path clip-rule="evenodd" d="m32.75 29h7.25c1.6569 0 3 1.3431 3 3v6c0 1.6569-1.3431 3-3 3h-16c-1.6569 0-3-1.3431-3-3v-6c0-1.6569 1.3431-3 3-3h7.25v-2c0-.9665.7835-1.75 1.75-1.75.1381 0 .25-.1119.25-.25 0-.4142.3358-.75.75-.75s.75.3358.75.75c-.0163.9564-.7935 1.7247-1.75 1.73-.0699-.0002-.1367.0288-.1842.0801-.0475.0514-.0714.1202-.0658.1899zm7.25 10.5c.8284 0 1.5-.6716 1.5-1.5v-6c-.0163-.8167-.6831-1.4702-1.5-1.47h-16c-.8169-.0002-1.4837.6533-1.5 1.47v6c0 .8284.6716 1.5 1.5 1.5z" fill-rule="evenodd"/>
<path d="m29 34.27h-1.25v-1.27c0-.4142-.3358-.75-.75-.75s-.75.3358-.75.75v1.25h-1.25c-.4142 0-.75.3358-.75.75s.3358.75.75.75h1.25v1.25c0 .4142.3358.75.75.75s.75-.3358.75-.75v-1.23h1.25c.4142 0 .75-.3358.75-.75s-.3358-.75-.75-.75z"/>
<circle cx="36" cy="33.02" r="1"/><circle cx="36" cy="37.02" r="1"/><circle cx="38" cy="35.02" r="1"/><circle cx="34" cy="35.02" r="1"/></g></svg>