
<svg version="1.1" id="Icons" xmlns="http://www.w3.org/2000/svg" xmlns:xlink="http://www.w3.org/1999/xlink" x="0px" y="0px"
	 viewBox="0 0 32 32"  xml:space="preserve"
	 width='48px' height='48px' fill='#3483fa'>
<style type="text/css">
	.st0{fill:"#3483fa";stroke:"currentColor";stroke-width:2;stroke-linejoin:round;stroke-miterlimit:10;}
	.st1{fill:"#3483fa";stroke:"currentColor";stroke-width:2;stroke-linecap:round;stroke-linejoin:round;stroke-miterlimit:10;}
</style>
<polygon class="st1" points="8.1,25.4 6.6,23.9 8.9,20.1 11.9,23.1 "/>
<polygon class="st1" points="24.5,6 26,7.5 17.1,17.9 14.1,14.9 "/>
<polygon class="st1" points="26,7.5 24.5,6 26,3 29,6 "/>
<line class="st1" x1="23.1" y1="4.5" x2="24.5" y2="6"/>
<line class="st1" x1="26" y1="7.5" x2="27.5" y2="8.9"/>
<line class="st1" x1="20.1" y1="6" x2="21.6" y2="7.5"/>
<line class="st1" x1="24.5" y1="10.4" x2="26" y2="11.9"/>
<path class="st1" d="M18.8,10.9c-2.4-1.4-5.6-1.1-7.6,1L11,12.1c0.6,1.2,0.4,2.6-0.6,3.6c-1.2,1.2-3.2,1.2-4.4,0.1
	c-0.3,0.2-0.6,0.4-0.8,0.7c-2.9,2.9-2.9,7.6,0,10.4c2.9,2.9,7.6,2.9,10.4,0c0.3-0.3,0.5-0.5,0.7-0.8c-1.2-1.2-1.2-3.2,0.1-4.4
	c1-1,2.4-1.2,3.6-0.6l0.1-0.1c2.1-2.1,2.4-5.2,1-7.6"/>
</svg>
