<svg viewBox="0 0 25 25" xmlns="http://www.w3.org/2000/svg" width='48px' height='48px'>
<path d="m22.5 12h-1a.47.47 0 0 0 -.35.15l-.7.7a1.47 1.47 0 0 0 -.45 1.07v1.43a1.8 1.8 0 0 0 -1.09-.35h-5.91v-1h4.55a2.36 2.36 0 0 0 1.8-.85 2.51 2.51 0 0 0 .54-2.05l-1.4-8.1a2.4 2.4 0 0 0 -2.34-2h-7.3a2.4 2.4 0 0 0 -2.34 2l-1.4 8.1a2.51 2.51 0 0 0 .54 2.05 2.36 2.36 0 0 0 1.8.85h4.55v1h-5.86a1.82 1.82 0 0 0 -1.14.43v-1.51a1.56 1.56 0 0 0 -.45-1.07l-.71-.7a.47.47 0 0 0 -.38-.15h-1a.5.5 0 0 0 0 1h.79l.56.55a.59.59 0 0 1 .16.38l.03 3.27a.46.46 0 0 0 0 .2 1.31 1.31 0 0 0 .22.87 1.75 1.75 0 0 0 1.52.73h6.26v2h-5.55a1.39 1.39 0 0 0 -1.45 1.31v1.19a.5.5 0 0 0 1 0v-1.19c0-.16.21-.31.45-.31h12.1c.24 0 .45.15.45.31v1.19a.5.5 0 0 0 1 0v-1.19a1.39 1.39 0 0 0 -1.45-1.31h-5.55v-2h6.32a1.72 1.72 0 0 0 1.46-.73 1.3 1.3 0 0 0 .22-1.13v-3.21a.54.54 0 0 1 .15-.38l.56-.55h.79a.5.5 0 0 0 0-1zm-15 1a1.31 1.31 0 0 1 -1-.49 1.49 1.49 0 0 1 -.33-1.24l1.32-8.07a1.42 1.42 0 0 1 1.36-1.2h7.3a1.42 1.42 0 0 1 1.36 1.2l1.4 8.07a1.49 1.49 0 0 1 -.33 1.24 1.31 1.31 0 0 1 -1 .49zm12.5 4.71a.76.76 0 0 1 -.64.29h-13.62a.76.76 0 0 1 -.64-.29.36.36 0 0 1 0-.33l.41-1a.71.71 0 0 1 .63-.38h12.77a.72.72 0 0 1 .68.37l.41 1a.36.36 0 0 1 0 .34z" fill="currentColor"/></svg>