<svg id="Layer_1" data-name="Layer 1" xmlns="http://www.w3.org/2000/svg" viewBox="0 0 64 64" width='48px' height='48px'>
<title>balloon</title><path d="M32,35a9.22,9.22,0,0,1-2.11-.24,9.76,9.76,0,0,1-6.32-4.54l-4-6.71A14.42,14.42,0,0,1,21.7,5.88a9.9,9.9,0,0,1,7-2.88h6.68a9.93,9.93,0,0,1,7,2.88,14.46,14.46,0,0,1,2.17,17.63l-4,6.72a9.82,9.82,0,0,1-6.33,4.54A9.65,9.65,0,0,1,32,35ZM28.66,5a7.73,7.73,0,0,0-5.54,2.3,12.41,12.41,0,0,0-1.87,15.18l4,6.71a7.82,7.82,0,0,0,13.42,0l4-6.72A12.43,12.43,0,0,0,40.88,7.3,7.89,7.89,0,0,0,35.34,5Z"/><path d="M32,61a1,1,0,0,1-1-1V40a1,1,0,0,1,2,0V60A1,1,0,0,1,32,61Z"/><path d="M37,41H27a1,1,0,0,1-.89-1.45l3.11-6.21a1,1,0,0,1,1.11-.52,7.84,7.84,0,0,0,3.34,0,1,1,0,0,1,1.11.52l3.11,6.21A1,1,0,0,1,37,41Zm-8.38-2h6.76l-2.05-4.09a9.87,9.87,0,0,1-2.66,0Z"/></svg>