<svg xmlns="http://www.w3.org/2000/svg" viewBox="0 0 64 64" width='48px' height='48px'>
<g id="Layer_11" data-name="Layer 11"><path d="M57.82,47.59h-.67L51.66,31.06a6.79,6.79,0,0,0-2.77-8.23c2.77-4.93-2.66-10.64-7.72-8.16a8.13,8.13,0,0,0-10.33-2.29A7.67,7.67,0,0,0,18.71,14a7.66,7.66,0,0,0-5.54,10.36,7.51,7.51,0,0,0-.78,6.61L6.85,47.59A3.21,3.21,0,1,0,6.18,54H57.82A3.18,3.18,0,0,0,57.82,47.59ZM19.48,15.85a1.19,1.19,0,0,0,.78-.57,5.64,5.64,0,1,1,8,7.29,1,1,0,0,0,.5,1.86C32.66,23,34.13,17.5,32,14A6.14,6.14,0,0,1,40,16.5a1.25,1.25,0,0,0,.32.33,1,1,0,0,0,1,0A3.93,3.93,0,0,1,47.05,22a6.84,6.84,0,0,0-6.33,1.61,1,1,0,0,0,0,1.41,1,1,0,0,0,1.42,0c3.55-3.38,9.43.44,7.76,5.07H14.24A5.68,5.68,0,0,1,20,22.77a1,1,0,0,0,1-.94c-.14-2.41-5.41-.32-6.35.72A5.65,5.65,0,0,1,19.48,15.85Zm-5.4,16.32H49.92L55,47.59H9ZM57.82,52H6.18a1.18,1.18,0,0,1,0-2.36H57.82A1.18,1.18,0,0,1,57.82,52Z"/><path d="M45.39,37.47a3.4,3.4,0,0,0-6.65-1H25.26c-2.08-5.29-9.34-.88-5.65,3.41-3.69,4.3,3.58,8.7,5.65,3.41H38.74c2.08,5.29,9.34.89,5.65-3.41A3.38,3.38,0,0,0,45.39,37.47ZM42,40.88a1.41,1.41,0,1,1-1.41,1.41,1,1,0,0,0-1-1H24.43a1,1,0,0,0-1,1A1.41,1.41,0,1,1,22,40.88a1,1,0,1,0,0-2,1.41,1.41,0,1,1,1.41-1.41,1,1,0,0,0,1,1H39.57a1,1,0,0,0,1-1A1.41,1.41,0,1,1,42,38.88,1,1,0,0,0,42,40.88Z"/></g></svg>