<svg viewBox="0 0 1024 1089.841" width='48px' height='48px' xmlns="http://www.w3.org/2000/svg">
<path d="M790.234 971.786c1.625-165.488-57.903-276.098-139.013-332.62-31.445-21.904-65.953-35.7-101.103-41.406-35.3-5.707-71.528-3.402-106.225 6.898-114.483 34.016-212.147 156.134-210.125 367.13h556.467zm-711.335 0h79.73C156.493 742.253 260.053 599.84 388.2 545.128c-128.24-54.71-231.838-197.294-229.57-427.09H78.9c-4.177 0-7.58-3.837-7.58-8.543V41.463c0-4.706 3.403-8.542 7.58-8.542h866.183c4.158 0 7.578 3.837 7.578 8.543v68.032c0 4.706-3.42 8.542-7.577 8.542h-79.75c1.872 193.438-71.51 325.307-171.213 394.795-18.577 12.945-38.117 23.717-58.3 32.296 20.183 8.6 39.723 19.37 58.3 32.315 99.63 69.43 172.973 201.15 171.214 394.342h79.75c4.157 0 7.577 3.855 7.577 8.56v68.014c0 4.705-3.42 8.56-7.577 8.56H78.9c-4.177 0-7.58-3.855-7.58-8.56v-68.014c0-4.706 3.403-8.56 7.58-8.56zm711.334-853.75H233.786c-2.173 211.28 95.548 333.548 210.107 367.583 34.696 10.298 70.924 12.604 106.225 6.878 35.15-5.688 69.658-19.484 101.104-41.386 81.185-56.56 140.75-167.322 139.013-333.075z"/></svg>