<svg fill="none" height="48px" stroke="currentColor" stroke-linecap="round" stroke-linejoin="round" viewBox="0 0 24 24" width="48px" xmlns="http://www.w3.org/2000/svg">&lt;!--! Atomicons Free 1.00 by @atisalab License - https://atomicons.com/license/ (Icons: CC BY 4.0) Copyright 2021 Atomicons --&gt;<path d="m21.94 9.38a6.57 6.57 0 0 1 -6.49 5.62 6.69 6.69 0 0 1 -1.91-.3l-7 7a2 2 0 0 1 -2.82 0l-1.43-1.41a2 2 0 0 1 0-2.82l7-7a6 6 0 0 1 -.29-1.47 6.57 6.57 0 0 1 5.59-6.93 6.49 6.49 0 0 1 3.73.6l-4.32 4.33 3 3 4.34-4.34a6.44 6.44 0 0 1 .6 3.72z"/></svg>