<svg viewBox="0 0 1034 1045.437" width='48px' height='48px' xmlns="http://www.w3.org/2000/svg"><path d="M260.77 523.427c138.75 0 251.23 112.48 251.23 251.23s-112.48 251.23-251.23 251.23S9.54 913.407 9.54 774.657c.155-138.688 112.542-251.075 251.215-251.23h.015zm0 434.314c101.115 0 183.084-81.97 183.084-183.083s-81.97-183.084-183.084-183.084c-101.115 0-183.084 81.97-183.084 183.084.13 101.063 82.022 182.955 183.072 183.084h.012zm608.312-260.77c90.828 0 164.458 73.63 164.458 164.46s-73.63 164.457-164.458 164.457-164.458-73.63-164.458-164.458c.103-90.787 73.672-164.355 164.448-164.46h.01zm0 260.77c53.192 0 96.312-43.12 96.312-96.31s-43.12-96.313-96.312-96.313-96.312 43.12-96.312 96.312c.052 53.17 43.14 96.26 96.307 96.31h.005zm-130.385-62.238h-260.77v-68.146h260.77zm294.843-34.073h-68.146V539.236L534.124 409.76l-42.66-339.727H164.458V397.63l-86.772 86.773v290.254H9.54V456.145l86.77-86.772V1.887h455.304l44.613 355.356 437.358 131.294zM651.925 70.032H0V1.887h651.925zm-43.613 347.542H130.385V349.43h477.927zm293.026 50.882h-68.146V296.73c.153-66.77 54.11-120.887 120.805-121.3h45.47v68.147h-45.43c-29.14.308-52.65 23.977-52.7 53.15v.004z"/></svg>