<svg id="Layer_1"  width='48px' height='48px'
data-name="Layer 1" xmlns="http://www.w3.org/2000/svg" 
viewBox="0 0 25 25" >
<title>Watch
</title>
<path id="Watch" d="M12.15,12.85A.5.5,0,0,1,12,12.5V8h1v4.29l3.35,3.35-.71.71ZM19,18h0v5.75A1.25,1.25,0,0,1,17.75,25H7.25A1.25,1.25,0,0,1,6,23.75V18H6A8.46,8.46,0,0,1,6,7H6V1.25A1.25,1.25,0,0,1,7.25,0h10.5A1.25,1.25,0,0,1,19,1.25V7h0a8.46,8.46,0,0,1,0,11ZM7,1.25V6A8.46,8.46,0,0,1,18,6V1.25A.25.25,0,0,0,17.75,1H7.25A.25.25,0,0,0,7,1.25ZM5,12.5A7.5,7.5,0,1,0,12.5,5,7.51,7.51,0,0,0,5,12.5ZM18,23.75V19A8.46,8.46,0,0,1,7,19v4.78a.25.25,0,0,0,.25.25h10.5A.25.25,0,0,0,18,23.75Z" /></svg>