<svg   xmlns="http://www.w3.org/2000/svg" width= "48"
viewBox="0 0 64 64" fill=''><g id="Layer_11" data-name="Layer 11"><path d="M32,3A29,29,0,0,0,3,32c1.59,38.47,56.41,38.46,58,0A29,29,0,0,0,32,3Zm0,56A27,27,0,0,1,5,32C6.48-3.82,57.52-3.81,59,32A27,27,0,0,1,32,59Z"/><path d="M55.9,32.7a23.91,23.91,0,1,0-27.33,23h0a23.61,23.61,0,0,0,6.82,0h0A24,24,0,0,0,55.9,32.7ZM32,10.08A21.94,21.94,0,0,1,53.52,27.89H43.39a3.72,3.72,0,0,0-3.67-3.2H24.28a3.72,3.72,0,0,0-3.67,3.2H10.48A21.94,21.94,0,0,1,32,10.08ZM22.77,27.6a1.69,1.69,0,0,1,1.51-.91H39.72a1.73,1.73,0,0,1,1.43,2.67L33.43,41h0a1.77,1.77,0,0,1-2.86,0L22.85,29.35A1.67,1.67,0,0,1,22.77,27.6ZM10.16,33.78c9.35.61,16.84,9.09,17.38,19.68A22,22,0,0,1,10.16,33.78Zm19.41,20c-.41-11.88-8.9-21.46-19.48-22,0-.63,0-1.25.1-1.86H20.88a3.1,3.1,0,0,0,.3.57L28.9,42.12a3.72,3.72,0,0,0,6.2,0l7.72-11.66a3.1,3.1,0,0,0,.3-.57H53.81c.06.61.09,1.23.1,1.86-10.58.57-19.07,10.15-19.48,22A21.94,21.94,0,0,1,29.57,53.78Zm6.89-.32c.54-10.59,8-19.07,17.38-19.68A22,22,0,0,1,36.46,53.46Z"/></g></svg>